<?xml version="1.0" encoding="UTF-8"?>
<svg width="512" height="512" viewBox="0 0 512 512" xmlns="http://www.w3.org/2000/svg" role="img" aria-label="Bee avatar icon">
  <defs>
    <linearGradient id="bgGrad" x1="0" y1="0" x2="1" y2="1">
      <stop offset="0%" stop-color="#eef4ff"/>
      <stop offset="100%" stop-color="#f8fbff"/>
    </linearGradient>
    <linearGradient id="beeBody" x1="0" y1="0" x2="1" y2="1">
      <stop offset="0%" stop-color="#f7c948"/>
      <stop offset="100%" stop-color="#f0ab22"/>
    </linearGradient>
    <linearGradient id="stripe" x1="0" y1="0" x2="1" y2="0">
      <stop offset="0%" stop-color="#27272a"/>
      <stop offset="100%" stop-color="#111827"/>
    </linearGradient>
  </defs>

  <rect width="512" height="512" rx="80" fill="url(#bgGrad)"/>
  <g transform="translate(256 256)">
    <g transform="translate(-140 -160)">
      <rect x="0" y="0" width="280" height="220" rx="34" fill="#ffffff" opacity="0.72"/>
      <rect x="24" y="28" width="232" height="18" rx="9" fill="#a5b4fc" opacity="0.6"/>
      <rect x="24" y="64" width="160" height="14" rx="7" fill="#7c3aed" opacity="0.65"/>
      <rect x="24" y="88" width="196" height="14" rx="7" fill="#4338ca" opacity="0.24"/>
      <rect x="24" y="116" width="56" height="14" rx="7" fill="#4338ca" opacity="0.24"/>
      <rect x="28" y="152" width="60" height="14" rx="7" fill="#1e293b" opacity="0.18"/>
      <rect x="28" y="178" width="146" height="14" rx="7" fill="#1e293b" opacity="0.18"/>
    </g>

    <g transform="translate(0 24)">
      <circle cx="0" cy="0" r="108" fill="url(#beeBody)"/>
      <path d="M-96 0 C-76 -44, -76 44, -96 0 Z" fill="url(#stripe)"/>
      <path d="M-48 -52 C-32 -74, 32 -74, 48 -52 L48 -20 C32 -36, -32 -36, -48 -20 Z" fill="#ffffff" opacity="0.6"/>
      <path d="M-96 -16 H96" stroke="#111827" stroke-width="18" stroke-linecap="round"/>
      <circle cx="0" cy="72" r="64" fill="#ffffff" opacity="0.9"/>
      <circle cx="0" cy="72" r="56" fill="#fde68a"/>
      <path d="M-34 52 Q0 28, 34 52" stroke="#111827" stroke-width="10" fill="none" stroke-linecap="round"/>
      <circle cx="-28" cy="24" r="18" fill="#111827" opacity="0.88"/>
      <circle cx="28" cy="24" r="18" fill="#111827" opacity="0.88"/>
      <circle cx="-24" cy="20" r="6" fill="#fff"/>
      <circle cx="24" cy="20" r="6" fill="#fff"/>
      <path d="M-80 14 C-88 -32, -32 -54, 0 -54 C32 -54, 88 -32, 80 14" stroke="#111827" stroke-width="14" fill="none" stroke-linecap="round"/>
      <path d="M-55 -8 Q-72 8, -55 24" stroke="#111827" stroke-width="10" fill="none" stroke-linecap="round"/>
      <path d="M55 -8 Q72 8, 55 24" stroke="#111827" stroke-width="10" fill="none" stroke-linecap="round"/>
      <path d="M-68 62 C-58 28, -10 20, 0 36 C10 20, 58 28, 68 62" fill="#111827" opacity="0.06"/>
      <g transform="translate(-80 -14) rotate(-6)">
        <rect x="-28" y="-116" width="56" height="90" rx="24" fill="#e5e7eb"/>
        <rect x="-18" y="-96" width="36" height="16" rx="8" fill="#6366f1"/>
        <rect x="-18" y="-64" width="36" height="12" rx="6" fill="#c7d2fe"/>
      </g>
      <g transform="translate(80 -18) rotate(10)">
        <rect x="-24" y="-118" width="48" height="84" rx="20" fill="#e5e7eb"/>
        <rect x="-14" y="-98" width="28" height="14" rx="7" fill="#6366f1"/>
        <rect x="-14" y="-66" width="28" height="10" rx="5" fill="#c7d2fe"/>
      </g>

      <g transform="translate(-108 10)">
        <path d="M0 0 C-20 18, -40 22, -70 12" stroke="#111827" stroke-width="12" fill="none" stroke-linecap="round"/>
      </g>
      <g transform="translate(108 6)">
        <path d="M0 0 C20 24, 40 34, 70 20" stroke="#111827" stroke-width="12" fill="none" stroke-linecap="round"/>
      </g>
    </g>
  </g>
</svg>
